<?xml version="1.0" standalone="no"?>
<!DOCTYPE svg PUBLIC "-//W3C//DTD SVG 20010904//EN"
 "http://www.w3.org/TR/2001/REC-SVG-20010904/DTD/svg10.dtd">
<svg version="1.0" xmlns="http://www.w3.org/2000/svg"
 width="1500.000000pt" height="1500.000000pt" viewBox="0 0 1500.000000 1500.000000"
 preserveAspectRatio="xMidYMid meet">
<metadata>
Created by potrace 1.14, written by Peter Selinger 2001-2017
</metadata>
<g transform="translate(0.000000,1500.000000) scale(0.100000,-0.100000)"
fill="#000000" stroke="none">
<path d="M5845 12918 c-27 -4 -79 -7 -115 -6 -36 0 -101 -5 -144 -12 -44 -6
-92 -9 -108 -6 -16 3 -77 -1 -136 -9 -59 -8 -127 -16 -152 -16 -76 -2 -602
-77 -652 -93 -25 -8 -82 -18 -127 -22 -44 -3 -78 -10 -76 -14 5 -9 -18 -15
-98 -26 -26 -3 -50 -10 -52 -14 -3 -5 -31 -12 -63 -16 -31 -4 -59 -10 -62 -15
-3 -5 -26 -11 -50 -14 -46 -6 -102 -21 -132 -36 -10 -5 -26 -9 -35 -9 -10 0
-31 -7 -47 -15 -15 -8 -36 -15 -46 -15 -10 0 -33 -8 -52 -17 -60 -30 -68 -33
-81 -33 -8 0 -35 -11 -61 -25 -26 -14 -56 -25 -67 -25 -10 0 -19 -4 -19 -10 0
-5 -6 -10 -14 -10 -7 0 -34 -11 -60 -25 -26 -14 -54 -25 -62 -25 -7 0 -14 -4
-14 -10 0 -5 -9 -10 -20 -10 -11 0 -20 -4 -20 -10 0 -5 -9 -10 -20 -10 -11 0
-20 -3 -20 -8 0 -4 -15 -14 -32 -21 -18 -8 -55 -28 -83 -45 -86 -53 -109 -66
-127 -72 -10 -4 -18 -10 -18 -15 0 -5 -7 -9 -15 -9 -8 0 -15 -4 -15 -10 0 -5
-7 -10 -15 -10 -8 0 -15 -3 -15 -8 0 -4 -12 -13 -27 -19 -16 -7 -76 -49 -135
-94 -168 -126 -395 -363 -450 -467 -7 -13 -17 -21 -26 -17 -8 3 -12 0 -9 -7 2
-7 -7 -30 -20 -50 -12 -21 -23 -42 -23 -48 0 -5 -3 -10 -8 -10 -4 0 -13 -14
-20 -30 -8 -17 -18 -27 -24 -24 -6 4 -8 -1 -3 -15 4 -12 2 -21 -4 -21 -6 0
-11 -7 -11 -15 0 -8 -5 -15 -11 -15 -6 0 -9 -7 -5 -15 3 -8 1 -15 -4 -15 -6 0
-10 -9 -10 -20 0 -11 -4 -20 -10 -20 -5 0 -10 -9 -10 -21 0 -11 -4 -17 -10
-14 -7 4 -9 -2 -4 -19 3 -14 2 -26 -2 -26 -12 0 -37 -57 -30 -69 3 -5 0 -14
-8 -20 -7 -6 -19 -45 -27 -86 -7 -41 -17 -75 -21 -75 -5 0 -6 -16 -2 -35 4
-24 3 -35 -6 -35 -8 0 -10 -12 -5 -39 3 -21 2 -41 -3 -45 -5 -3 -7 -31 -4 -62
3 -33 1 -55 -4 -51 -6 3 3 -90 18 -206 16 -116 33 -214 39 -218 6 -3 14 -28
17 -55 2 -27 11 -53 18 -57 8 -4 14 -20 14 -36 0 -15 7 -36 15 -47 8 -10 15
-29 15 -41 0 -12 5 -23 12 -25 6 -2 13 -15 15 -28 2 -13 7 -27 11 -30 4 -3 23
-35 42 -72 19 -38 38 -68 42 -68 4 0 8 -7 8 -15 0 -8 5 -15 10 -15 6 0 10 -7
10 -15 0 -9 7 -18 15 -21 8 -4 15 -10 15 -15 0 -8 26 -42 58 -75 6 -7 12 -17
12 -22 0 -5 11 -15 25 -22 14 -7 25 -19 25 -27 0 -7 3 -13 8 -13 12 0 157
-143 154 -152 -1 -5 2 -7 7 -3 13 8 52 -26 44 -38 -3 -6 -1 -7 5 -3 6 3 29
-11 51 -32 23 -21 42 -37 44 -36 1 2 18 -10 37 -26 19 -17 39 -30 43 -30 5 0
5 -6 1 -12 -4 -7 -4 -10 1 -6 4 4 33 -13 64 -38 31 -24 61 -48 66 -52 6 -4 28
-18 50 -32 35 -21 68 -44 111 -80 7 -5 15 -6 18 -3 3 4 6 1 6 -5 0 -7 5 -12
12 -12 13 0 91 -51 96 -63 2 -4 8 -5 13 -1 5 3 9 1 9 -4 0 -6 10 -12 23 -16
21 -5 38 -17 87 -58 8 -7 16 -12 17 -10 4 3 66 -29 73 -37 3 -4 20 -13 38 -20
17 -8 32 -16 32 -20 0 -4 16 -13 35 -20 19 -7 35 -16 35 -21 0 -5 16 -14 35
-20 19 -6 35 -15 35 -19 0 -4 17 -16 38 -25 55 -24 116 -57 122 -65 3 -4 20
-13 38 -20 17 -8 32 -17 32 -21 0 -4 18 -13 40 -20 22 -7 40 -17 40 -22 0 -5
4 -7 9 -4 5 4 11 2 13 -2 1 -5 66 -39 143 -77 77 -37 159 -76 182 -87 41 -20
41 -22 47 -82 10 -128 25 -274 35 -341 6 -38 10 -95 11 -125 0 -31 4 -60 9
-65 5 -6 11 -30 14 -55 3 -25 13 -83 22 -130 9 -47 20 -114 24 -150 5 -36 13
-81 20 -100 6 -19 11 -52 11 -72 0 -20 4 -39 9 -42 4 -3 11 -20 15 -38 3 -18
13 -64 21 -103 9 -38 20 -90 24 -115 5 -25 14 -58 20 -75 12 -34 38 -138 52
-205 9 -48 17 -78 54 -205 13 -44 31 -104 39 -134 9 -29 16 -60 16 -69 0 -9 4
-29 10 -46 5 -17 20 -65 34 -106 13 -41 27 -96 31 -122 3 -26 10 -50 16 -53 5
-4 9 -19 9 -36 0 -16 4 -37 10 -47 14 -25 60 -178 60 -199 0 -10 7 -31 15 -47
8 -15 15 -36 15 -46 0 -9 9 -39 19 -66 11 -27 27 -76 36 -109 9 -33 23 -76 30
-95 21 -54 56 -162 61 -190 3 -14 9 -34 14 -45 4 -11 20 -54 35 -95 14 -41 32
-91 39 -110 7 -19 21 -57 30 -85 10 -27 31 -86 48 -130 16 -44 33 -94 37 -110
4 -17 13 -39 19 -50 6 -11 18 -40 26 -65 34 -103 69 -196 87 -233 34 -65 22
-82 -63 -97 -40 -6 -134 -14 -208 -16 -74 -2 -167 -9 -206 -15 -39 -5 -91 -10
-115 -10 -24 1 -180 -1 -346 -3 -167 -2 -301 -1 -299 3 2 3 -36 6 -85 5 -48
-1 -86 2 -84 6 2 4 -6 5 -18 3 -12 -2 -75 3 -141 11 -65 9 -122 13 -128 10 -5
-3 -15 -1 -22 5 -7 6 -20 9 -27 6 -8 -3 -57 1 -109 9 -52 8 -98 12 -102 10 -4
-3 -14 -2 -20 3 -7 4 -25 6 -40 4 -16 -1 -28 2 -28 7 0 4 -14 6 -31 4 -21 -3
-30 -1 -25 6 4 6 -1 8 -13 5 -10 -3 -56 2 -102 11 -45 9 -85 14 -87 11 -3 -2
-13 0 -23 5 -15 9 -20 5 -29 -27 -18 -58 -24 -277 -11 -373 17 -128 57 -276
96 -359 144 -303 462 -543 915 -689 904 -292 2146 -120 3015 417 235 145 491
371 627 555 153 205 248 457 248 657 0 32 4 60 9 63 5 3 12 30 15 60 4 30 16
79 27 108 10 29 19 61 19 70 0 10 6 32 14 50 8 18 22 60 31 93 9 33 32 98 51
145 19 47 34 89 34 93 0 9 72 166 102 222 65 122 207 292 273 328 139 75 214
93 333 78 74 -9 92 -17 162 -64 41 -28 140 -140 149 -170 2 -7 14 -34 27 -62
46 -102 80 -241 104 -435 5 -41 14 -106 19 -145 6 -38 10 -103 11 -143 0 -40
5 -82 11 -94 7 -13 14 -231 20 -647 14 -918 18 -977 88 -1236 15 -55 52 -124
92 -169 39 -44 157 -126 182 -126 7 0 18 -5 25 -12 6 -6 30 -15 54 -19 24 -4
63 -13 88 -18 86 -21 355 -24 470 -7 58 9 132 20 165 25 34 4 70 13 82 19 12
7 30 12 40 12 11 0 37 8 59 19 67 32 133 61 138 61 3 0 30 15 59 34 69 44 115
97 172 195 26 45 51 83 56 87 5 3 9 12 9 21 0 15 14 47 76 177 13 28 24 54 24
58 0 5 9 30 21 56 41 91 47 107 54 132 7 26 9 31 45 120 12 30 26 69 30 85 9
33 27 85 45 130 7 17 18 48 25 70 7 22 16 44 21 49 5 6 9 18 9 28 0 9 6 32 14
50 42 99 86 216 86 231 0 17 15 55 56 143 13 28 24 58 24 67 0 9 5 19 10 22 5
3 10 13 10 22 0 9 18 54 40 100 22 47 40 89 40 94 0 5 4 17 10 27 14 25 90
191 90 196 0 6 86 192 135 292 19 38 35 73 35 77 0 4 25 60 56 124 55 118 60
127 88 193 9 19 20 42 25 50 5 8 19 40 31 70 13 30 36 82 51 114 16 33 29 64
29 69 0 5 18 48 40 94 22 47 40 88 40 92 0 5 6 21 14 37 7 16 37 85 66 154 64
152 87 206 106 243 8 16 14 35 14 43 0 7 16 46 35 85 19 40 35 77 35 82 0 5 6
23 14 40 25 58 43 102 56 137 7 19 19 49 26 67 8 17 14 36 14 42 0 6 4 19 9
29 22 43 69 176 105 297 15 50 32 99 38 110 7 11 15 38 19 60 12 61 30 125 50
179 11 27 19 60 19 75 1 14 7 37 15 51 8 14 14 39 15 57 0 17 6 58 14 90 7 32
19 85 26 118 6 33 16 68 21 77 5 10 9 35 9 55 0 21 5 56 10 78 5 22 15 92 21
155 6 63 17 178 26 255 23 218 28 703 9 915 -26 293 -60 528 -78 546 -5 4 -8
20 -8 36 0 32 -28 127 -41 143 -5 5 -9 23 -9 41 0 18 -6 45 -14 61 -32 65 -56
125 -56 139 0 9 -6 28 -14 42 -8 15 -38 77 -67 137 -29 61 -68 133 -86 162
-18 29 -33 54 -33 57 0 4 -96 143 -132 191 -87 115 -303 335 -407 415 -120 91
-192 143 -232 164 -26 14 -67 38 -90 54 -58 38 -326 172 -345 172 -8 0 -22 4
-32 10 -31 18 -145 60 -161 60 -9 0 -25 6 -36 14 -11 7 -36 16 -55 19 -34 5
-140 34 -230 63 -25 8 -57 14 -72 14 -15 0 -30 5 -33 10 -3 6 -24 10 -45 10
-22 0 -75 6 -117 14 -106 20 -364 47 -579 61 -96 7 -135 2 -480 -60 -68 -13
-133 -16 -265 -13 -200 5 -216 10 -340 110 -36 29 -115 93 -175 141 -60 49
-116 91 -124 95 -8 3 -33 20 -56 39 -23 18 -43 33 -46 33 -3 0 -48 28 -99 63
-151 102 -330 203 -464 263 -16 7 -64 29 -105 48 -85 39 -309 116 -337 116
-11 0 -23 4 -29 9 -10 10 -73 26 -189 47 -204 37 -299 48 -530 60 -76 4 -133
11 -137 18 -8 12 -950 16 -1033 4z m1475 -368 c74 -10 178 -30 230 -44 52 -14
106 -28 120 -32 22 -5 92 -30 155 -54 188 -73 399 -192 669 -376 283 -193 491
-331 509 -337 9 -4 17 -16 17 -27 0 -18 -6 -20 -68 -20 -152 0 -297 30 -507
105 -135 48 -280 85 -332 85 -57 0 -57 -21 -2 -84 56 -63 149 -106 339 -155
259 -66 346 -75 730 -74 184 0 394 6 465 12 72 6 272 18 445 27 574 29 873
-10 1308 -170 126 -47 337 -159 457 -245 285 -202 538 -498 687 -806 21 -44
43 -88 49 -99 19 -33 108 -283 130 -363 189 -686 163 -1543 -71 -2418 -57
-215 -73 -265 -154 -505 -97 -287 -107 -314 -117 -324 -5 -6 -9 -16 -9 -23 0
-15 -74 -207 -90 -235 -5 -10 -10 -23 -10 -29 0 -6 -7 -25 -15 -42 -8 -18 -30
-70 -48 -117 -19 -47 -55 -134 -80 -195 -25 -60 -63 -153 -85 -205 -45 -109
-155 -368 -178 -420 -9 -19 -22 -48 -29 -65 -8 -16 -26 -58 -40 -92 -14 -35
-36 -87 -49 -115 -14 -29 -68 -154 -121 -278 -53 -124 -114 -265 -135 -315
-39 -91 -173 -425 -237 -590 -19 -49 -41 -106 -48 -125 -8 -19 -30 -82 -50
-140 -20 -58 -43 -121 -50 -140 -7 -19 -32 -89 -55 -155 -43 -124 -61 -170
-92 -242 -10 -23 -18 -45 -18 -49 0 -18 -116 -234 -149 -277 -86 -114 -247
-199 -432 -228 -99 -15 -275 -6 -364 20 -89 26 -192 77 -210 105 -15 23 -29
337 -40 941 -15 800 -38 1114 -107 1450 -19 96 -51 218 -67 260 -5 11 -18 47
-30 80 -95 258 -264 458 -456 538 -226 95 -464 85 -686 -27 l-66 -33 -18 151
c-10 83 -24 161 -32 172 -8 12 -16 46 -20 75 -3 30 -12 58 -19 62 -8 4 -14 20
-14 36 0 15 -7 36 -15 47 -8 10 -15 28 -15 38 0 22 -57 143 -71 151 -5 4 -9
15 -9 26 0 10 -3 19 -8 19 -4 0 -16 17 -27 38 -11 20 -25 41 -32 45 -7 4 -13
15 -13 22 0 8 -4 15 -10 15 -5 0 -10 4 -10 9 0 6 -11 22 -25 37 -14 15 -25 33
-25 40 0 8 -7 14 -15 14 -8 0 -15 5 -15 11 0 7 -11 22 -24 34 -14 13 -22 26
-19 29 4 3 0 6 -8 6 -14 0 -45 39 -41 52 1 4 -5 5 -13 2 -8 -4 -15 -2 -15 3 0
12 -28 42 -63 68 -15 11 -27 26 -27 34 0 8 -3 12 -6 8 -4 -3 -18 5 -33 18 -14
13 -41 38 -58 54 -18 17 -33 28 -33 25 0 -5 -3 -3 -51 39 -14 12 -36 29 -48
37 -13 8 -37 28 -54 43 -18 16 -52 40 -77 55 -25 14 -47 29 -50 32 -3 3 -39
28 -80 55 -41 28 -78 54 -81 58 -3 5 -9 8 -13 8 -8 -2 -69 30 -76 38 -3 4 -20
13 -37 20 -18 8 -33 16 -33 20 0 4 -53 33 -117 66 -65 33 -119 63 -121 67 -2
4 -19 12 -38 18 -19 6 -31 16 -28 21 3 6 0 9 -7 8 -17 -3 -99 31 -99 40 0 5
-18 14 -40 21 -22 7 -37 17 -33 23 4 6 0 8 -10 4 -10 -3 -17 -3 -17 2 0 4 -18
14 -40 21 -21 7 -37 16 -35 20 2 4 -14 12 -35 19 -22 6 -40 17 -40 22 0 6 -7
9 -15 5 -8 -3 -15 -2 -15 3 0 8 -182 101 -199 101 -6 0 -11 5 -11 10 0 6 -6
10 -13 10 -6 0 -49 18 -95 40 -45 22 -87 40 -92 40 -6 0 -10 4 -10 8 0 5 -18
15 -40 22 -22 7 -40 17 -40 22 0 4 -3 7 -7 6 -11 -3 -166 73 -174 85 -3 5 -8
8 -10 8 -12 -4 -68 22 -64 29 3 4 -4 6 -15 3 -12 -3 -20 0 -20 6 0 7 -4 9 -10
6 -5 -3 -10 -2 -10 4 0 5 -14 12 -30 16 -17 4 -28 11 -25 16 4 5 -1 6 -9 3 -9
-3 -16 -2 -16 3 0 6 -18 16 -40 23 -22 7 -40 17 -40 22 0 4 -3 7 -7 7 -13 -3
-93 33 -93 41 0 4 -18 13 -40 20 -22 7 -40 18 -40 23 0 6 -3 7 -6 4 -4 -4 -19
2 -33 12 -32 22 -275 141 -289 141 -6 0 -12 3 -14 8 -1 4 -33 22 -70 40 l-66
32 -8 68 c-8 78 2 551 16 731 32 413 126 824 278 1216 105 272 285 609 437
819 124 170 309 374 456 502 102 90 298 219 409 271 266 124 694 174 1050 123z
m-1681 -124 c-248 -203 -399 -369 -583 -639 -25 -38 -46 -71 -46 -74 0 -4 -6
-14 -14 -22 -7 -9 -28 -43 -46 -76 -17 -33 -35 -64 -40 -70 -20 -26 -170 -336
-170 -352 0 -3 -11 -29 -24 -57 -39 -83 -56 -126 -56 -139 0 -7 -9 -32 -20
-55 -11 -22 -20 -48 -20 -56 0 -9 -6 -30 -14 -48 -8 -18 -22 -60 -31 -93 -9
-33 -25 -88 -36 -121 -10 -34 -19 -71 -19 -82 0 -11 -7 -33 -15 -48 -8 -16
-15 -41 -15 -56 0 -15 -11 -71 -25 -124 -14 -53 -25 -108 -25 -123 0 -15 -4
-31 -9 -37 -5 -5 -11 -40 -14 -79 -3 -38 -10 -99 -16 -135 -27 -167 -61 -616
-61 -797 0 -81 -4 -143 -9 -143 -18 0 -41 12 -36 20 2 4 -14 12 -36 19 -22 7
-37 16 -34 21 4 6 0 10 -8 10 -20 0 -98 35 -92 41 2 3 -11 11 -30 18 -19 7
-35 16 -35 21 0 4 -11 11 -24 14 -14 3 -31 12 -38 19 -12 12 -78 52 -141 87
-45 24 -241 143 -255 155 -7 5 -19 16 -27 23 -8 7 -15 10 -15 7 0 -7 -93 58
-118 82 -7 7 -17 13 -22 13 -5 0 -23 13 -40 30 -16 16 -30 27 -30 24 0 -5 -17
8 -61 48 -16 15 -29 25 -29 22 0 -3 -6 1 -14 8 -8 7 -26 22 -40 33 -15 11 -43
35 -63 53 -20 17 -40 32 -44 32 -5 0 -9 7 -9 15 0 8 -5 15 -10 15 -12 0 -90
77 -84 82 2 3 -7 11 -21 18 -14 7 -25 18 -25 23 0 5 -11 20 -24 32 -14 13 -22
26 -19 29 3 3 -2 8 -11 12 -9 3 -16 12 -16 20 0 8 -3 14 -8 14 -8 0 -13 8 -50
84 -12 25 -27 46 -32 46 -6 0 -10 8 -10 19 0 10 -7 24 -15 31 -8 7 -15 23 -15
35 0 13 -7 25 -15 29 -9 3 -15 18 -15 39 0 19 -6 40 -14 46 -8 7 -17 40 -21
74 -4 34 -12 68 -18 75 -6 8 -12 56 -13 108 -1 52 -6 108 -9 124 -4 20 -3 30
5 30 9 0 10 13 6 45 -5 32 -4 45 5 45 7 0 9 10 6 30 -4 16 -2 32 2 35 5 3 12
28 16 55 4 28 10 50 15 50 4 0 11 17 15 37 4 21 10 40 14 43 10 7 61 115 61
128 0 7 5 12 10 12 6 0 10 5 10 11 0 37 147 237 259 352 68 70 252 227 266
227 3 0 15 8 26 18 10 11 32 25 47 33 15 8 36 22 46 32 11 9 24 17 30 17 5 0
17 6 25 14 9 7 45 29 81 47 36 19 67 37 68 42 2 4 12 7 22 7 10 0 22 5 25 10
3 6 15 10 26 10 10 0 19 3 19 8 0 4 21 15 48 25 26 10 55 23 64 28 10 5 27 9
39 9 11 0 27 7 35 15 9 8 26 15 40 15 13 0 24 4 24 8 0 5 13 9 29 10 17 0 39
5 50 11 11 6 28 11 39 11 11 0 33 7 48 15 16 8 39 15 52 15 12 0 38 6 57 14
19 8 56 18 82 21 26 4 62 13 78 20 17 7 75 18 130 25 55 6 118 17 140 25 54
17 290 48 323 42 14 -3 53 -1 86 4 34 4 129 11 211 15 83 3 152 8 154 10 2 2
45 3 95 3 l90 -1 -25 -22z m-849 -4317 c0 -5 3 -8 8 -7 14 3 72 -28 65 -36 -4
-4 0 -4 10 0 9 3 17 2 17 -3 0 -6 18 -15 40 -22 22 -6 40 -16 40 -21 0 -6 3
-9 8 -8 13 2 73 -28 66 -34 -3 -4 4 -4 17 -1 17 5 20 3 14 -7 -6 -10 -4 -12 8
-7 10 3 17 2 17 -3 0 -6 6 -10 14 -10 8 0 22 -7 30 -16 9 -8 16 -12 16 -8 0 3
6 1 14 -5 19 -16 189 -101 203 -101 6 0 13 -3 15 -7 4 -10 152 -83 167 -83 6
0 11 -5 11 -11 0 -5 5 -7 10 -4 6 3 10 2 10 -4 0 -5 14 -12 30 -16 17 -4 36
-12 43 -18 15 -15 162 -87 176 -87 6 0 11 -5 11 -11 0 -5 4 -8 9 -5 5 4 11 3
13 -1 1 -5 36 -24 76 -43 39 -19 72 -37 72 -41 0 -3 18 -12 40 -19 21 -7 37
-16 35 -20 -2 -4 13 -12 35 -19 21 -6 45 -17 52 -24 7 -7 28 -19 46 -26 17 -7
32 -17 32 -21 0 -4 11 -11 24 -14 14 -3 31 -12 38 -19 8 -6 40 -25 73 -42 68
-33 197 -106 205 -114 3 -3 21 -14 40 -23 19 -10 44 -24 54 -30 11 -7 39 -25
63 -39 23 -14 39 -29 36 -33 -4 -4 0 -4 10 0 9 3 17 2 17 -4 0 -5 14 -15 30
-22 17 -7 30 -16 30 -21 0 -5 6 -9 13 -9 13 0 136 -86 149 -105 4 -5 8 -7 8
-2 0 6 37 -23 75 -60 7 -7 15 -9 19 -6 6 6 10 -12 7 -30 -1 -5 3 -6 9 -2 5 3
25 -8 42 -24 18 -17 36 -31 41 -31 4 0 7 -7 7 -15 0 -8 4 -15 9 -15 10 0 61
-46 61 -56 0 -4 11 -17 24 -29 13 -12 36 -41 51 -63 15 -23 32 -42 36 -42 5 0
9 -7 9 -15 0 -8 5 -15 10 -15 6 0 10 -7 10 -15 0 -8 4 -15 9 -15 5 0 11 -8 14
-17 3 -10 15 -34 26 -53 10 -19 22 -42 25 -50 3 -8 10 -22 14 -30 25 -45 42
-83 42 -96 0 -8 7 -29 16 -47 10 -17 27 -108 40 -202 25 -183 29 -229 16 -221
-4 2 -5 -16 -2 -42 3 -26 2 -54 -2 -62 -4 -8 -10 -41 -13 -72 -4 -32 -10 -58
-14 -58 -4 0 -5 -14 -3 -31 3 -20 1 -29 -5 -26 -6 4 -13 -10 -17 -32 -3 -21
-13 -51 -21 -67 -8 -16 -15 -34 -15 -41 0 -6 -5 -13 -10 -15 -6 -2 -12 -13
-13 -25 0 -12 -4 -20 -7 -18 -3 2 -14 -18 -24 -43 -11 -26 -22 -49 -25 -52 -3
-3 -15 -21 -26 -41 -43 -79 -169 -231 -262 -319 -93 -87 -154 -136 -249 -201
-106 -72 -246 -149 -269 -149 -7 0 -15 -4 -17 -8 -1 -4 -30 -20 -63 -36 -33
-16 -68 -32 -77 -37 -10 -5 -27 -9 -38 -9 -11 0 -20 -4 -20 -9 0 -5 -13 -12
-30 -16 -16 -4 -32 -11 -35 -16 -4 -5 -19 -9 -36 -9 -16 0 -29 -4 -29 -8 0 -5
-28 -16 -62 -25 -66 -16 -122 -34 -149 -48 -9 -4 -34 -11 -55 -15 -22 -3 -44
-11 -50 -15 -6 -5 -33 -12 -60 -16 -26 -3 -59 -12 -74 -20 -14 -7 -37 -13 -51
-13 -24 0 -30 12 -101 193 -137 348 -157 401 -289 772 -27 77 -128 374 -137
405 -6 19 -27 87 -47 150 -34 108 -141 472 -152 515 -3 11 -20 76 -39 145 -36
133 -102 406 -129 530 -9 41 -20 91 -25 110 -5 19 -20 94 -34 165 -14 72 -30
153 -36 180 -38 194 -120 739 -120 802 0 31 1 32 30 22 17 -6 30 -15 30 -20z
m2760 -3922 c-39 -150 -123 -282 -284 -443 -387 -388 -1018 -661 -1756 -761
-209 -28 -714 -25 -899 5 -409 67 -722 197 -913 380 -53 50 -138 162 -138 182
0 4 29 8 65 8 35 0 63 -3 61 -7 -2 -3 61 -6 140 -6 79 0 144 -3 144 -6 0 -13
598 2 748 19 39 4 72 5 72 2 0 -4 61 1 137 11 75 10 168 20 207 23 118 7 538
65 586 81 25 8 83 20 130 26 47 6 87 15 90 20 3 5 36 13 72 18 36 5 74 14 84
19 11 5 40 13 66 16 26 4 50 11 53 17 4 5 16 9 28 9 12 0 56 9 97 20 115 31
123 34 225 70 11 4 37 15 58 24 21 9 47 16 57 16 11 0 20 5 20 10 0 6 7 10 16
10 9 0 30 7 47 16 60 31 67 34 87 34 11 0 20 5 20 10 0 6 4 10 10 10 9 0 104
40 142 61 10 5 27 9 38 9 12 0 19 4 16 8 -2 4 24 21 60 37 35 17 64 33 64 38
0 4 9 7 20 7 11 0 20 4 20 8 0 5 16 14 35 22 19 8 35 17 35 22 0 4 9 8 21 8
11 0 17 5 14 10 -3 6 3 10 14 10 12 0 21 5 21 10 0 6 7 10 15 10 8 0 15 5 15
10 0 6 5 10 10 10 6 0 41 20 78 45 l67 45 3 -61 c2 -38 -5 -90 -18 -142z"/>
<path d="M9020 10780 c-45 -11 -80 -54 -105 -127 -16 -47 -20 -84 -20 -193 0
-124 3 -139 25 -184 64 -127 201 -155 295 -62 134 135 119 445 -27 543 -38 25
-117 36 -168 23z"/>
<path d="M8284 10736 c-39 -17 -69 -49 -97 -101 -20 -36 -22 -55 -22 -175 1
-124 3 -139 27 -190 51 -108 130 -151 221 -121 158 53 213 357 92 515 -50 66
-157 101 -221 72z"/>
<path d="M9565 8922 c-38 -21 -133 -80 -210 -131 -253 -169 -351 -204 -597
-217 -234 -12 -448 31 -645 128 -103 51 -106 66 -25 107 70 35 84 51 80 88 -3
25 -7 28 -45 31 -162 12 -340 -92 -412 -240 -37 -76 -55 -173 -35 -189 34 -28
129 24 136 74 2 14 10 22 23 22 25 0 71 -90 80 -155 23 -175 113 -473 196
-645 151 -315 356 -448 689 -447 182 1 318 34 480 118 168 86 245 177 361 425
4 9 18 54 31 100 21 76 23 104 23 284 -1 143 -6 229 -18 304 -12 69 -17 150
-16 240 1 108 -2 136 -12 138 -8 2 -45 -14 -84 -35z m-33 -338 c10 -49 21
-132 25 -185 6 -92 5 -97 -18 -119 -33 -31 -167 -93 -269 -124 -292 -87 -686
-100 -929 -30 -212 62 -320 183 -308 343 7 90 16 95 104 65 149 -50 219 -58
498 -59 276 0 391 14 570 66 83 25 212 83 240 108 22 20 45 31 59 27 5 -1 17
-42 28 -92z"/>
<path d="M2160 5665 c0 -8 5 -15 10 -15 6 0 10 7 10 15 0 8 -4 15 -10 15 -5 0
-10 -7 -10 -15z"/>
<path d="M2180 5618 c0 -13 7 -52 15 -88 87 -398 101 -583 55 -783 -12 -57
-55 -143 -103 -211 -52 -71 -128 -130 -247 -190 -116 -59 -172 -80 -335 -126
-135 -38 -139 -39 -132 -46 3 -3 43 2 89 10 123 23 351 35 470 24 328 -30 554
-209 743 -588 51 -104 92 -192 106 -230 6 -19 19 -51 27 -70 20 -49 33 -82 43
-105 4 -11 10 -29 12 -40 3 -16 5 -15 12 9 6 20 4 31 -3 34 -7 2 -12 16 -12
30 0 15 -5 43 -10 62 -6 19 -19 78 -30 130 -86 426 -53 692 108 871 109 121
316 227 567 289 116 29 119 29 113 36 -3 3 -61 -2 -129 -10 -376 -46 -585 -20
-778 96 -159 95 -315 302 -443 588 -51 113 -118 288 -118 307 0 6 -4 15 -10
18 -6 3 -10 -4 -10 -17z"/>
<path d="M2942 3140 c0 -14 2 -19 5 -12 2 6 2 18 0 25 -3 6 -5 1 -5 -13z"/>
</g>
</svg>
